<svg width="700" height="700" viewBox="0 0 700 700" fill="none" xmlns="http://www.w3.org/2000/svg">
<path d="M324.46 282C323.513 270.163 319.074 260.93 311.143 254.301C303.331 247.672 291.435 244.358 275.455 244.358C265.275 244.358 256.929 245.601 250.419 248.087C244.027 250.454 239.292 253.709 236.214 257.852C233.137 261.995 231.539 266.73 231.42 272.057C231.184 276.437 231.953 280.402 233.729 283.953C235.623 287.386 238.582 290.523 242.607 293.364C246.631 296.086 251.78 298.572 258.054 300.821C264.328 303.07 271.785 305.082 280.426 306.858L310.256 313.25C330.379 317.511 347.602 323.134 361.925 330.118C376.248 337.102 387.966 345.329 397.081 354.798C406.196 364.15 412.884 374.685 417.145 386.403C421.525 398.122 423.774 410.906 423.892 424.756C423.774 448.667 417.796 468.908 405.959 485.48C394.122 502.052 377.195 514.659 355.178 523.3C333.279 531.941 306.941 536.261 276.165 536.261C244.56 536.261 216.979 531.586 193.423 522.234C169.986 512.883 151.757 498.501 138.736 479.088C125.833 459.557 119.323 434.58 119.205 404.159H212.955C213.546 415.286 216.328 424.637 221.3 432.213C226.271 439.789 233.255 445.53 242.251 449.436C251.366 453.342 262.197 455.295 274.744 455.295C285.279 455.295 294.098 453.993 301.2 451.389C308.303 448.785 313.688 445.175 317.358 440.558C321.027 435.942 322.921 430.674 323.04 424.756C322.921 419.192 321.087 414.339 317.536 410.196C314.103 405.935 308.421 402.147 300.49 398.832C292.559 395.4 281.847 392.204 268.352 389.244L232.131 381.432C199.934 374.448 174.543 362.788 155.959 346.453C137.493 330 128.319 307.568 128.438 279.159C128.319 256.077 134.474 235.894 146.903 218.612C159.451 201.212 176.792 187.658 198.928 177.952C221.181 168.245 246.69 163.392 275.455 163.392C304.811 163.392 330.201 168.304 351.626 178.129C373.052 187.954 389.564 201.804 401.165 219.678C412.884 237.433 418.802 258.207 418.92 282H324.46ZM516.133 537.682C502.402 537.682 490.624 532.888 480.799 523.3C471.093 513.593 466.299 501.815 466.417 487.966C466.299 474.472 471.093 462.93 480.799 453.342C490.624 443.754 502.402 438.96 516.133 438.96C529.154 438.96 540.636 443.754 550.579 453.342C560.64 462.93 565.73 474.472 565.849 487.966C565.73 497.199 563.304 505.603 558.569 513.179C553.952 520.636 547.915 526.614 540.458 531.112C533.001 535.492 524.892 537.682 516.133 537.682Z" fill="url(#paint0_linear_6_3)"/>
<defs>
<linearGradient id="paint0_linear_6_3" x1="350" y1="48" x2="350" y2="653" gradientUnits="userSpaceOnUse">
<stop offset="0.239966" stop-color="#7C3AED"/>
<stop offset="0.830615" stop-color="#110F2E"/>
</linearGradient>
</defs>
</svg>
